PathFileType	4	(X/Y/Z)	C:/Users/beibeiliu/ov580/test_trc/User1\sequence.5_training_dense_left.trc
DataRate	CameraRate	NumFrames	NumMarkers	Units	OrigDataRate	OrigDataStartFrame	OrigNumFrames
120	120	22	19	mm	120	135	269
Frame#	Time	ThumbCMC			ThumbMCP			ThumbIP			ThumbTip			IndexMCP			IndexPIP			IndexTip			MiddleMCP			MiddlePIP			MiddleTip			RingMCP			RingPIP			RingTip			PinkyMCP			PinkyPIP			PinkyTip			BackHand1			BackHand2			BackHand3	
		X0	Y0	Z0	X1	Y1	Z1	X2	Y2	Z2	X3	Y3	Z3	X4	Y4	Z4	X5	Y5	Z5	X6	Y6	Z6	X7	Y7	Z7	X8	Y8	Z8	X9	Y9	Z9	X10	Y10	Z10	X11	Y11	Z11	X12	Y12	Z12	X13	Y13	Z13	X14	Y14	Z14	X15	Y15	Z15	X16	Y16	Z16	X17	Y17	Z17	X18	Y18	Z18	
134	1.11667	-197.087	141.758	23.1703	-162.234	157.414	14.5238	-135.219	152.309	5.09942	-111.32	138.659	4.33959	-149.405	120.686	-46.35	-124.195	118.039	-62.6978	-103.062	106.293	-69.3286	-125.717	110.875	-27.0206	-108.893	119.954	1.00825	-143.183	125.874	25.1485	-124.083	88.223	-10.1506	-116.81	106.871	19.4569	-149.044	108.127	35.6219	-126.007	70.9408	1.77623	-123.913	92.0052	23.2065	-152.569	102.058	31.439	-183.154	75.8421	-9.44632	-212.426	76.1981	12.3031	-206.903	109.353	-4.91259	
135	1.125	-197.079	139.627	22.2744	-161.333	155.757	14.875	-131.846	146.993	2.75264	-106.658	133.486	1.59282	-146.095	112.905	-50.283	-124.783	103.981	-62.9282	-103.075	93.4391	-73.0895	-126.196	102.62	-28.1009	-108.95	114.452	-1.84576	-143.259	116.64	25.5239	-124.556	86.871	-11.0521	-117.933	99.0526	21.339	-148.343	106.459	33.5602	-133.686	64.901	-0.710115	-124.516	84.5554	23.8656	-152.183	97.4383	33.5709	-187.5	73.5507	-9.63342	-211.606	69.8383	13.6919	-206.598	106.68	-4.58744	
136	1.13333	-191.919	134.238	16.9655	-157.142	150.19	10.2051	-131.427	144.957	2.57834	-105.957	125.753	-0.744465	-147.072	106.947	-52.3114	-128.388	95.8798	-64.3651	-108.082	84.2445	-74.3381	-126.282	95.6974	-29.8768	-109.135	107.9	-1.63047	-141.006	116.539	22.3644	-128.127	76.6582	-11.3344	-117.517	91.713	15.769	-149.484	99.9984	33.6178	-131.575	60.0132	0.978877	-125.23	76.0249	24.0098	-156.525	93.3458	32.1521	-190.815	71.4896	-8.11757	-215.582	69.1433	14.1564	-206.449	102.378	-5.58547	
137	1.14167	-191.454	132.087	15.1656	-156.795	147.539	10.1982	-129.53	135.041	-1.14136	-107.888	116.5	-2.11839	-152.085	102.287	-51.6475	-130.118	92.4914	-68.584	-110.278	79.0749	-79.921	-131.436	88.492	-31.561	-109.069	100.512	-3.095	-139.288	107.361	22.3243	-131.018	67.7862	-12.5901	-119.019	82.6453	16.4676	-149.59	97.239	31.2299	-136.404	54.4291	-0.140842	-128.931	71.6413	23.1001	-152.899	89.0813	31.1094	-193.495	67.5243	-9.56832	-217.61	69.927	16.1025	-207.686	103.479	-7.46433	
138	1.15	-190.104	131.86	16.9588	-154.09	141.952	8.64574	-124.362	129.427	-5.16392	-106.255	108.999	-3.98867	-152.247	96.0213	-55.1096	-133.603	81.1185	-69.9117	-113.641	67.9277	-83.5117	-129.331	79.2517	-32.9227	-110.742	91.1541	-4.71457	-138.259	102.379	19.5976	-134.667	62.8783	-16.3545	-120.264	78.2718	12.5716	-146.978	87.5594	30.5794	-139.882	51.0579	-2.68518	-131.391	65.6536	21.6054	-153.894	84.2095	29.142	-195.085	63.2016	-13.4407	-221.579	72.4748	16.5821	-206.336	103.704	-9.13714	
139	1.15833	-185.306	133.24	12.4612	-148.545	137.65	2.98403	-125.576	119.823	-7.56849	-111.127	100.487	-7.23282	-153.693	92.2277	-58.8165	-136.617	76.2707	-74.1864	-122.598	58.8978	-82.7749	-131.661	70.2307	-35.4291	-111.937	79.2372	-11.4819	-136.802	96.2754	15.1736	-136.982	56.4517	-17.123	-123.538	69.8911	12.4892	-149.308	85.9073	26.2149	-149.756	41.6171	-5.84141	-133.706	56.1945	16.8187	-159.082	76.7333	27.9732	-200.584	65.4285	-10.0562	-222.204	71.6274	11.7225	-208.303	101.28	-6.40653	
140	1.16667	-182.198	129.001	11.2865	-145.229	132.538	2.19777	-123.292	112.807	-10.7	-109.442	86.3067	-12.6942	-157.515	84.1757	-58.9587	-143.349	66.9898	-76.1	-131.259	49.2537	-86.8462	-140.158	67.0178	-39.8288	-116.028	68.866	-13.9581	-141.567	89.2164	11.3832	-142.926	50.6911	-22.954	-125.988	63.3487	7.31678	-150.041	79.8985	21.894	-154.279	36.2438	-8.34347	-138.343	49.2065	12.8677	-157.291	71.8752	21.7789	-203.643	65.091	-11.7285	-225.749	76.6683	16.5689	-207.508	105.073	-10.781	
141	1.175	-178.257	128.616	11.8952	-143.329	124.389	-0.396396	-121.148	107.819	-14.5825	-112.839	81.9138	-16.0583	-161.314	85.0005	-60.9211	-150.72	67.1522	-76.3493	-138.064	46.5143	-94.0871	-146.647	59.7261	-43.8118	-118.773	65.411	-17.2492	-140.792	83.2219	7.48913	-147.879	41.9765	-24.642	-131.332	51.2428	1.73898	-150.955	68.8826	19.6242	-158.611	29.5948	-11.7403	-141.934	41.0231	7.56774	-162.167	69.2371	21.7204	-205.844	64.2361	-15.1885	-226.853	76.1776	12.7866	-206.932	102.567	-7.27599	
142	1.18333	-175.616	128.238	13.6661	-141.35	120.172	-2.31583	-122.695	99.9915	-17.452	-117.017	72.6683	-20.2401	-167.375	82.8487	-62.74	-158.487	62.1301	-78.9026	-149.535	43.5998	-93.1967	-149.623	58.3399	-47.199	-125.272	54.7165	-23.1998	-147.459	76.0977	4.43687	-156.694	41.9551	-30.0259	-136.368	45.5377	-2.42271	-155.703	71.4133	14.679	-166.471	26.1224	-14.2236	-147.595	39.0572	2.89827	-162.635	63.0317	21.7397	-211.085	67.1932	-13.8994	-229.639	77.0611	14.0496	-209.235	103.361	-5.95492	
143	1.19167	-173.969	124.482	11.1675	-141.706	113.706	-4.30511	-124.873	94.6016	-20.0443	-120.811	66.4372	-24.5983	-171.687	81.552	-64.3769	-166.404	63.3068	-81.8196	-158.609	43.3747	-98.6081	-156.56	51.5636	-50.204	-131.184	49.6839	-26.342	-147.34	74.7433	-0.322178	-164.35	38.1881	-32.5334	-141.402	42.4871	-3.67413	-156.084	62.9417	12.9981	-177.981	25.564	-17.2022	-153.198	35.0578	-0.0320921	-168.761	60.8493	19.2378	-214.923	69.513	-16.2037	-230.776	78.8504	16.7258	-208.508	102.956	-4.72303	
144	1.2	-171.736	120.527	11.9202	-138.618	110.287	-8.4499	-125.915	88.2087	-24.784	-121.796	58.1707	-31.5483	-177.758	81.9191	-65.6869	-171.664	64.8443	-86.8408	-167.379	43.9219	-106.173	-164.818	51.5603	-53.7531	-136.566	44.9307	-34.8085	-148.213	72.0572	-5.02895	-165.503	36.474	-34.8247	-145.809	37.7677	-12.1158	-162.9	61.5553	11.6328	-182.305	28.0814	-20.58	-158.998	32.1279	-0.448596	-167.575	55.5247	16.1932	-217.595	70.6525	-14.6691	-231.597	81.8256	17.9723	-206.997	104.78	-7.0035	
145	1.20833	-167.96	118.357	7.45859	-138.69	104.676	-9.96786	-127.811	81.4364	-29.1483	-126.478	53.7885	-35.0276	-180.896	79.4088	-69.7532	-179.448	65.1525	-86.9592	-177.587	47.4063	-105.128	-170.791	50.3909	-55.2215	-142.562	40.9419	-38.045	-151.067	69.2774	-6.94188	-175.137	37.725	-38.4434	-150.766	35.0194	-13.2369	-164.718	59.7847	7.42323	-184.566	21.5844	-22.4337	-163.6	26.9074	-3.40794	-171.713	53.007	15.4637	-220.515	68.937	-12.4002	-232.78	82.1238	19.0881	-206.737	106.236	-3.84195	
146	1.21667	-169.447	111.621	9.74865	-140.656	97.9008	-10.358	-126.061	80.0883	-29.4551	-131.119	51.3476	-37.2355	-185.715	79.8948	-68.4477	-183.246	69.0647	-87.7615	-187.401	48.1682	-111.226	-174.371	52.7442	-59.3312	-146.847	39.0481	-41.3588	-152.475	62.8058	-10.5308	-177.487	34.5816	-40.9432	-153.603	33.637	-14.4293	-164.523	53.188	5.52663	-191.473	23.1138	-23.8199	-167.454	26.9972	-8.70252	-173.671	54.5347	11.263	-222.023	71.314	-11.7902	-232.094	83.5176	18.7519	-209.871	105.736	-3.25137	
147	1.225	-166.201	108.696	8.65068	-137.279	94.3179	-11.5747	-134.055	72.9553	-31.9879	-133.191	45.1481	-44.2348	-187.23	85.1136	-68.9509	-189.309	70.4923	-88.6218	-194.569	54.908	-108.334	-179.741	49.84	-59.6628	-151.969	37.0012	-46.415	-154.164	57.8946	-13.2122	-186.539	34.1651	-42.0403	-158.779	31.286	-20.5831	-169.694	52.0436	5.29098	-198.282	21.871	-27.1965	-172.428	26.7702	-9.67608	-178.603	51.8441	10.672	-225.323	70.9852	-13.6584	-229.933	86.9199	23.823	-204.149	108.021	-1.06766	
148	1.23333	-163.293	107.696	11.563	-139.001	88.9588	-14.137	-134.893	69.7842	-34.3317	-136.313	41.4921	-47.57	-190.568	86.1547	-66.2641	-195.593	72.4656	-87.1956	-204.366	57.5673	-109.229	-182.864	54.8409	-62.6898	-155.801	36.4624	-48.8246	-159.936	54.7793	-13.2575	-190.949	33.7776	-44.0912	-164.504	27.8531	-24.4593	-169.58	51.76	1.22026	-203.546	25.7515	-30.1991	-177.344	25.2328	-13.8605	-182.305	49.2842	8.92956	-225.969	74.3195	-13.5714	-228.739	90.3936	24.9882	-204.446	107.428	-1.02704	
149	1.24167	-163.021	102.412	11.9979	-135.634	84.9693	-11.6468	-134.706	64.2007	-38.5376	-144.616	38.1135	-50.9006	-192.302	86.7497	-69.5947	-198.792	76.1995	-85.8892	-206.918	64.3085	-112.517	-186.782	57.7901	-62.8111	-162.415	33.3698	-52.1917	-160.462	56.1164	-14.3724	-193.661	39.0057	-47.9274	-169.735	25.7848	-26.4678	-173.027	43.0664	-0.0788751	-209.81	29.8433	-31.4143	-185.098	20.7137	-17.1088	-186.099	46.0155	7.01048	-228.204	77.567	-12.1937	-230.019	87.6336	25.1097	-200.809	109.941	0.935066	
150	1.25	-161.895	98.2086	10.1343	-138.852	78.0374	-15.3742	-135.81	61.7698	-36.2858	-145.334	36.2226	-52.6275	-192.097	90.7811	-65.2637	-198.481	83.5242	-90.5129	-211.65	70.9578	-109.007	-190.72	55.5193	-64.1952	-167.157	33.3946	-50.1385	-163.454	49.9332	-18.4796	-195.622	40.8594	-51.1173	-174.767	25.3678	-29.8023	-176.01	43.5016	-2.72107	-214.78	29.2331	-34.2001	-189.302	23.4496	-17.8629	-187.735	47.0534	7.13454	-226.236	82.7021	-8.41408	-227.002	89.7369	25.177	-199.385	110.156	2.86359	
151	1.25833	-155.532	95.6889	10.5171	-142.157	73.7586	-14.312	-139.517	56.7768	-41.611	-154.859	35.9647	-53.029	-190.733	94.8899	-63.2956	-199.11	87.9499	-86.9597	-212.711	78.7696	-109.432	-194.435	60.9748	-63.5033	-171.665	33.5077	-55.2193	-166.777	50.8389	-18.557	-201.298	41.4802	-52.1873	-179.687	25.7904	-32.8798	-178.571	39.5852	-5.45755	-215.768	34.7446	-36.5435	-194.475	23.1652	-20.1993	-190.088	43.3439	3.86769	-228.813	85.496	-11.0319	-227.572	91.1884	25.9636	-198.976	106.938	1.5562	
152	1.26667	-154.958	90.6423	11.4847	-139.773	68.3929	-11.7302	-140.91	53.6228	-39.3099	-156.615	34.289	-55.7836	-188.41	98.4821	-65.3568	-197.071	94.6871	-88.6499	-211.245	88.9085	-107.106	-195.418	63.8088	-65.7292	-174.491	36.0998	-58.6577	-170.463	47.674	-20.8633	-206.102	49.2795	-52.9767	-186.919	26.1969	-37.593	-184.02	42.0978	-4.87836	-223.643	37.6014	-36.5636	-198.497	28.0849	-23.0313	-194.124	47.3318	1.13423	-225.547	89.4777	-6.81063	-222.346	96.7726	27.6823	-194.627	108.131	6.44597	
153	1.275	-155.339	85.7168	13.0461	-138.807	63.7012	-14.6017	-147.445	51.2436	-40.3237	-160.61	33.7796	-56.2739	-187.655	99.7945	-60.0584	-196.367	100.466	-88.7775	-212.283	96.5327	-108.499	-193.28	66.6845	-68.4324	-180.286	36.712	-59.1748	-170.359	48.3719	-22.3698	-212.548	52.617	-52.4329	-190.592	27.0202	-36.9129	-184.657	40.3656	-9.38329	-223.97	45.8415	-37.7605	-203.989	28.9503	-21.775	-196.716	47.6747	1.00653	-225.263	92.7502	-9.49128	-221.884	97.4483	30.8273	-190.818	108.98	9.46019	
154	1.28333	-153.779	80.7567	13.5358	-139.147	58.3528	-17.3514	-147.451	46.9524	-46.1247	-168.107	35.8451	-57.9958	-181.952	104.454	-64.5444	-193.659	103.323	-85.3113	-205.264	103.671	-105.586	-196.329	69.996	-66.2506	-181.154	38.6807	-61.0179	-172.806	48.6574	-21.3822	-209.038	59.42	-53.6547	-195.411	29.2207	-36.8259	-189.133	41.86	-8.31217	-228.963	50.8702	-38.3208	-205.508	33.4312	-26.358	-199.051	47.366	-1.66558	-219.033	97.5428	-6.47704	-218.063	97.7065	32.3055	-184.008	106.606	7.70442	
155	1.29167	-151.743	74.2093	16.5875	-145.825	54.5711	-17.4539	-149.892	44.3684	-44.8678	-171.276	34.6339	-65.3456	-173.401	104.552	-60.7278	-183.107	108.873	-86.2842	-196.549	111.5	-107.786	-193.704	74.2397	-67.2525	-182.372	39.1298	-60.0975	-177.394	45.0601	-24.0173	-208.828	62.0781	-55.3769	-200.58	31.1616	-41.7153	-190.868	42.3565	-9.93718	-227.025	54.8142	-41.8481	-212.299	34.8951	-28.0463	-199.922	48.5596	-2.25469	-214.41	101.598	-6.09849	-212.685	101.065	33.2005	-182.511	105.848	12.4282	
